<?xml version="1.0"?><svg width="393.32465" height="568.34241" xmlns="http://www.w3.org/2000/svg" xmlns:xlink="http://www.w3.org/1999/xlink">
 <defs>
  <filter id="filter3321">
   <feGaussianBlur id="feGaussianBlur3323" stdDeviation="3.84278"/>
  </filter>
  <filter id="filter10017">
   <feGaussianBlur stdDeviation="2.770486" id="feGaussianBlur10019"/>
  </filter>
  <linearGradient id="linearGradient13330">
   <stop stop-color="#ffffff" id="stop13332" offset="0"/>
   <stop stop-color="#ffffff" stop-opacity="0" id="stop13334" offset="1"/>
  </linearGradient>
  <radialGradient gradientTransform="matrix(0.987201, 0.686345, -0.892242, 1.28335, 416.454, -459.049)" gradientUnits="userSpaceOnUse" xlink:href="#linearGradient13330" id="radialGradient4147" fy="518.41992" fx="426.20044" r="29.132568" cy="518.41992" cx="426.20044"/>
  <linearGradient spreadMethod="reflect" xlink:href="#linearGradient5088" id="linearGradient4150" y2="0.650249" x2="0.450521" y1="0.328534" x1="-0.121539"/>
  <linearGradient id="linearGradient12308">
   <stop stop-color="#ffffff" id="stop12310" offset="0"/>
   <stop stop-color="#cbcbcb" id="stop12316" offset="0.777778"/>
   <stop stop-color="#8c8c8c" id="stop12312" offset="1"/>
  </linearGradient>
  <radialGradient gradientTransform="matrix(0.86211, 0, 0, 0.845592, 967.929, -162.972)" gradientUnits="userSpaceOnUse" xlink:href="#linearGradient12308" id="radialGradient12314" fy="586.53693" fx="-184.38057" r="73.396797" cy="586.53693" cx="-184.38057"/>
  <linearGradient spreadMethod="reflect" xlink:href="#linearGradient5088" id="linearGradient4157" y2="0.484426" x2="0.308304" y1="0.36225" x1="0.016275"/>
  <linearGradient spreadMethod="reflect" xlink:href="#linearGradient5088" id="linearGradient4162" y2="0.045378" x2="0.384039" y1="0.096683" x1="0.106258"/>
  <linearGradient id="linearGradient5088">
   <stop stop-color="#898989" id="stop5090" offset="0"/>
   <stop stop-color="#e6e6e6" id="stop5096" offset="0.5"/>
   <stop stop-color="#a4a4a4" id="stop5092" offset="1"/>
  </linearGradient>
  <linearGradient spreadMethod="reflect" xlink:href="#linearGradient5088" id="linearGradient4160" y2="0.368167" x2="0.447573" y1="0.498565" x1="-0.145208"/>
  <linearGradient id="linearGradient5106">
   <stop stop-color="#800000" id="stop5108" offset="0"/>
   <stop stop-color="#ff0c0c" id="stop6083" offset="0.5"/>
   <stop stop-color="#800000" id="stop5110" offset="1"/>
  </linearGradient>
  <linearGradient xlink:href="#linearGradient5106" id="linearGradient4166" y2="0.203077" x2="0.869114" y1="0.195716" x1="0.056079"/>
  <linearGradient id="svg_1">
   <stop stop-color="#3f007f" stop-opacity="0.996094" offset="0"/>
   <stop stop-color="#000000" stop-opacity="0.996094" offset="1"/>
  </linearGradient>
 </defs>
 <g>
  <title>Layer 1</title>
  <g externalResourcesRequired="false" id="layer1">
   <g display="inline" id="g2711"/>
   <path fill="#ff007f" fill-rule="evenodd" stroke-width="4.622826px" marker-start="none" marker-mid="none" marker-end="none" stroke-miterlimit="4" stroke-dashoffset="0" id="path2167" d="m65.254997,118.736l0,136.292015c0.469002,-0.053009 0.947006,-0.07901 1.43,-0.07901l115.522995,0l0,-136.212982l-116.95298,0l-0.000015,-0.000023zm142.560997,0l0,136.213005l116.22789,0l0,-136.213005l-116.22789,0zm-142.560997,163.644005l0,21.514008l0,18.024994l0,12.951996c0,33.951996 30.857002,71.45401 65.950996,99.397003c17.547012,13.971008 35.501007,25.468994 49.082001,33.347992c0.675003,0.390991 1.277008,0.730011 1.919998,1.097015l0,-186.255005l-115.522995,0c-0.482994,0 -0.960999,-0.024994 -1.43,-0.078003l0,0zm142.560997,0.078003l0,186.019989c0.407013,-0.233002 0.778,-0.445007 1.195007,-0.686005c13.554001,-7.839996 31.492996,-19.330994 49.042587,-33.328003c35.099213,-27.994995 65.990295,-65.644989 65.990295,-99.592987l0,-12.951996l0,-18.024994l0,-21.436005l-116.22789,0z"/>
   <path fill="#550000" fill-rule="evenodd" stroke-width="4.622826px" marker-start="none" marker-mid="none" marker-end="none" stroke-miterlimit="4" stroke-dashoffset="0" filter="url(#filter10017)" id="path10994" d="m65.866127,119.491821l0,134.114944c0.464149,-0.052673 0.937622,-0.078568 1.4161,-0.078568l1.998016,0l0,-130.599136l111.120285,0l0,-3.437248l-114.53437,0l-0.000008,0l-0.000023,0l0,0.000008zm141.141899,0l0,136.547394l3.414108,0l0,-133.110153l111.656509,0l0,-3.437248l-115.070618,0l0,0.000008zm-141.141899,164.04541l0,21.566315l0,18.07016l0,12.983002c0.000031,26.755096 18.885956,55.701294 43.840134,80.471039c-23.25013,-23.986145 -40.426018,-51.507263 -40.426018,-77.033783l0,-12.983002l0,-18.07016l0,-21.566315c0.464134,0.052673 0.937599,0.078583 1.416077,0.078552l110.958176,0l0,-3.437256l-114.372269,0c-0.47847,-0.000031 -0.95195,-0.025879 -1.416077,-0.078552l-0.000023,0zm141.141899,0.078552l0,186.475983c0.402283,-0.23349 0.770248,-0.445496 1.183289,-0.687439c0.715225,-0.418884 1.491669,-0.896118 2.23082,-1.335632l0,-181.015656l111.656509,0l0,-3.437256l-115.070618,0z"/>
   <path fill="url(#linearGradient4160)" fill-rule="evenodd" stroke="url(#linearGradient4162)" stroke-width="4.622826px" marker-start="none" marker-mid="none" marker-end="none" stroke-miterlimit="4" stroke-dashoffset="0" id="path10990" d="m43.353851,94.939751c-0.81332,-0.000008 -1.469513,0.720917 -1.469513,1.606651l0,204.946335l0,18.025879l0,12.951202c0,90.975098 147.171692,163.974609 150.790405,164.211792c3.610962,0.236694 150.809998,-73.236694 150.809998,-164.211792l0,-12.951202l0,-18.025879l0,-204.946335c-0.000061,-0.885742 -0.675781,-1.606651 -1.489136,-1.606651l-298.641754,0l0,0l0,0zm19.946018,21.395927l116.952694,0l0,136.212936l-115.522377,0c-0.483299,0 -0.961506,0.025787 -1.430317,0.078339l0,-136.291275zm142.561153,0l116.227783,0l0,136.212936l-116.227783,0l0,-136.212936zm-142.561153,163.64357c0.468811,0.052582 0.947018,0.078369 1.430317,0.078369l115.522377,0l0,186.254303c-0.643188,-0.366913 -1.244568,-0.705261 -1.920166,-1.097229c-13.5802,-7.878387 -31.534119,-19.376465 -49.081329,-33.347839c-35.094391,-27.942749 -65.951168,-65.445038 -65.951168,-99.397034l0,-12.951202l0,-18.025879l0,-21.513489l-0.000038,0l0.000008,0zm142.561153,0.078369l116.227783,0l0,21.43512l0,18.025879l0,12.951202c0,33.948303 -30.891235,71.598633 -65.990417,99.592957c-17.549622,13.997192 -35.488159,25.487915 -49.042175,33.328278c-0.417175,0.241364 -0.788879,0.45285 -1.19519,0.68576l0,-186.019196z"/>
   <path fill="url(#linearGradient4157)" fill-rule="evenodd" stroke-width="4.622826px" marker-start="none" marker-mid="none" marker-end="none" stroke-miterlimit="4" stroke-dashoffset="0" id="path10996" d="m62.430969,116.056641l0,138.2146c0.470371,-0.052811 0.950172,-0.078766 1.43507,-0.078766l2.024815,0l0,-134.690147l115.134857,0l0,-3.445679l-118.594749,0l0.000019,0l-0.000011,0l0,-0.000008zm143.034256,0l0,136.881866l3.459869,0l0,-133.43618l113.153549,0l0,-3.445679l-116.613419,0l0,-0.000008zm-143.034256,164.447296l0,21.61908l0,18.11441l0,13.014801c0.000011,26.820648 19.139153,55.837769 44.42791,80.668152c-23.561859,-24.044861 -40.96804,-51.633423 -40.96804,-77.222473l0,-13.014801l0,-18.11438l0,-21.619171c0.470375,0.052826 0.950165,0.078766 1.435059,0.078766l112.445831,0l0,-3.445648l-115.905689,0c-0.484879,0 -0.964687,-0.02597 -1.435059,-0.078735l0,0l-0.000011,0zm143.034256,0.078735l0,186.932709c0.407669,-0.23407 0.780563,-0.446594 1.199158,-0.689148c0.724777,-0.419922 1.511673,-0.898285 2.260712,-1.338898l0,-181.459015l113.153549,0l0,-3.445648l-116.613419,0z"/>
   <path fill="url(#radialGradient4147)" fill-rule="evenodd" stroke-width="4.622826px" marker-start="none" marker-mid="none" marker-end="none" stroke-miterlimit="4" stroke-dashoffset="0" id="path12318" d="m-62.73267,443.064819c7.73122,-1.040985 8.430901,7.386322 1.56176,17.809113c-6.86916,10.422821 -16.279499,16.474487 -24.010723,17.515503c-7.731224,1.041016 -10.87014,-4.133972 -4.000984,-14.556824c6.855484,-10.4021 18.66893,-19.690399 26.406158,-20.76181"/>
   <path fill="#ffffff" fill-rule="nonzero" stroke-width="8.3" marker-start="none" marker-mid="none" marker-end="none" stroke-miterlimit="4" stroke-dashoffset="0" filter="url(#filter3321)" id="path5586" d="m107.975311,97.81813l-1.860748,-0.361031l1.66729,10.695343l-3.061684,-10.410126l-1.559113,1.060585l0.367714,-1.826996l-10.993271,1.735527l10.702782,-3.104614l-1.080193,-1.530823l1.860748,0.361031l-1.566978,-10.30143l2.96138,10.016212l1.559105,-1.060593l-0.367714,1.827003l10.792679,-1.046181l-10.502182,2.415268l1.080185,1.530823z"/>
   <path fill="#ffffff" fill-rule="nonzero" stroke-width="8.3" marker-start="none" marker-mid="none" marker-end="none" stroke-miterlimit="4" stroke-dashoffset="0" filter="url(#filter3321)" id="path17038" d="m275.496185,421.558411l-1.860718,-0.361023l1.667267,10.695343l-3.061676,-10.410126l-1.559113,1.060608l0.367737,-1.826996l-10.993286,1.735504l10.702759,-3.104584l-1.08017,-1.530853l1.860748,0.361053l-1.566986,-10.301453l2.961395,10.016205l1.559082,-1.060577l-0.367706,1.826965l10.792664,-1.046112l-10.502167,2.415253l1.08017,1.530792z"/>
   <path fill="#ffffff" fill-rule="nonzero" stroke-width="8.3" marker-start="none" marker-mid="none" marker-end="none" stroke-miterlimit="4" stroke-dashoffset="0" filter="url(#filter3321)" id="path17040" d="m90.319031,131.535812l-8.896133,-2.119858l7.971191,62.798615l-14.637642,-61.123825l-7.453979,6.227249l1.758064,-10.727341l-52.557781,10.190216l51.168926,-18.228928l-5.164326,-8.988358l8.89613,2.119858l-7.491592,-60.485722l14.158035,58.810993l7.453979,-6.22731l-1.758057,10.72728l51.598717,-6.142654l-50.209763,14.181496l5.16423,8.988289z"/>
  </g>
 </g>
</svg>